<svg xmlns="http://www.w3.org/2000/svg" stroke-width="1.5"  fill="#1d6076" viewBox="0 0 64 64"><g id="HOUSE-26" data-name="HOUSE"><path d="M63,51H60.12V33a1,1,0,1,0-1.94,0v2H52.36V15a1,1,0,0,0-1-1c-1.4,0-.87,2.16-1,3H46.55c-.06-.55.17-1.47-.42-1.82l-16.48-12a1,1,0,0,0-1.13,0l-10.67,8a1,1,0,0,0-.4.81v5H13.58V15a1,1,0,1,0-1.94,0V35H5.82V33a1,1,0,1,0-1.94,0V51H1a1,1,0,0,0,0,2H63A1,1,0,0,0,63,51ZM46.55,27.75h3.87v1.5H46.55Zm3.87-1.5H46.55v-1.5h3.87Zm-3.87,4.5h3.87v1.5H46.55Zm3.87-7.5H46.55v-1.5h3.87Zm-3.87,10.5h3.87V35H46.55ZM50.42,19v1.25H46.55V19Zm-31-6.49L29.1,5.23,44.61,16.52V35H19.39ZM18.42,37h8.73V51H16.48V37Zm-1-10.75H13.58v-1.5h3.87Zm-3.87,1.5h3.87v1.5H13.58Zm3.87-4.5H13.58v-1.5h3.87Zm-3.87,7.5h3.87v1.5H13.58Zm3.87-10.5H13.58V19h3.87Zm-3.87,13.5h3.87V35H13.58ZM5.82,37h8.73V51H5.82ZM29.09,51V37H58.18v6H37.82a1,1,0,0,0,0,2H58.18v6Z"/><path d="M22.3,25.75h6.79a.74.74,0,0,0,.73-.75V18a.74.74,0,0,0-.73-.75H22.3a.74.74,0,0,0-.72.75v7A.74.74,0,0,0,22.3,25.75Zm.73-7h5.33v5.5H23Z"/><path d="M32,31.75h3.88a.74.74,0,0,0,.73-.75V27a.74.74,0,0,0-.73-.75H32a.74.74,0,0,0-.73.75v4A.74.74,0,0,0,32,31.75Zm.73-4h2.42v2.5H32.73Z"/></g></svg>