<?xml version="1.0" encoding="UTF-8" standalone="no"?> <svg height="613pt" fill="#1d6076" color="#1d6076" viewBox="-19 -56 613.33493 613" width="613pt" xmlns="http://www.w3.org/2000/svg"><path d="m73.214844 54.8125-15.453125 24.199219c-7.902344 12.382812-5.527344 28.691406 5.585937 38.300781 11.113282 9.613281 27.59375 9.613281 38.707032 0 11.113281-9.609375 13.488281-25.917969 5.578124-38.300781l-15.457031-24.199219c-2.066406-3.230469-5.640625-5.1875-9.476562-5.1875-3.84375 0-7.417969 1.957031-9.484375 5.1875zm3.507812 36.308594 5.976563-9.355469 5.972656 9.355469c1.894531 2.964844 1.320313 6.875-1.339844 9.175781-2.660156 2.304687-6.609375 2.304687-9.273437 0-2.660156-2.300781-3.230469-6.210937-1.335938-9.175781zm0 0"/><path d="m547.597656 52.09375c-2.113281-2.109375-4.976562-3.296875-7.957031-3.296875h-265.609375c-4.550781 0-8.652344 2.746094-10.394531 6.949219-1.742188 4.203125-.78125 9.042968 2.4375 12.261718 27.757812 27.746094 27.757812 72.746094 0 100.492188-.105469.105469-.183594.222656-.28125.328125-8.625-8.394531-19.542969-14.054687-31.375-16.273437v-52.308594c-.015625-13.109375-10.640625-23.734375-23.75-23.75h-7.5v-56.246094h23.4375c6.210937 0 11.25-5.039062 11.25-11.25 0-6.214844-5.039063-11.25-11.25-11.25h-114.996094c-2.984375 0-5.84375 1.179688-7.953125 3.289062l-16.875 16.875c-4.394531 4.394532-4.394531 11.519532 0 15.914063s11.511719 4.394531 15.90625 0l13.574219-13.578125h64.398437v56.246094h-20c-13.109375.015625-23.734375 10.640625-23.75 23.75v52.300781c-9.972656 1.863281-19.328125 6.1875-27.214844 12.582031h-98.429687c-4.550781 0-8.652344 2.738282-10.394531 6.941406-1.738282 4.203126-.777344 9.042969 2.441406 12.261719 27.703125 27.773438 27.703125 72.726563 0 100.5-.226562.222657-.4375.457031-.636719.699219-.035156.039062-.066406.078125-.101562.117188-.316407.382812-.605469.792968-.871094 1.21875-.046875.082031-.097656.171874-.148437.25-.253907.429687-.480469.878906-.675782 1.34375l-.007812.011718c-.191406.476563-.351563.957032-.480469 1.457032-.023437.101562-.046875.203124-.074219.300781-.117187.484375-.199218.976562-.2460935 1.472656v.03125c-.046875.476563-.0546875.949219-.0351563 1.425781 0 .125.0078126.234375.0195313.359375.0273437.480469.0859375.964844.1757815 1.4375 0 .015625.007812.035157.015625.050781.089844.464844.21875.921876.371094 1.375.03125.09375.066406.191407.101562.285157.171875.472656.371094.929687.605469 1.375v.011719c.230469.429687.492187.839843.777343 1.234374.070313.101563.140626.199219.214844.292969.296875.394531.625.769531.96875 1.128907l.015625.011718c13.371094 13.300782 20.863281 31.390625 20.816407 50.25.046874 18.855469-7.445313 36.953125-20.816407 50.25-3.222656 3.21875-4.1875 8.0625-2.441406 12.265625 1.742187 4.210938 5.851563 6.949219 10.40625 6.945313h75.652344v17.304687c.035156 33.804688 27.433593 61.207031 61.246093 61.246094h75c33.808594-.039063 61.207032-27.441406 61.246094-61.246094v-17.304687h255.230469c2.980469 0 5.84375-1.1875 7.957031-3.296875 33.625-33.621094 36.679688-87.132813 7.078125-124.355469 27.089844-34.058594 27.101563-82.296875.03125-116.371094 29.5625-37.230468 26.507813-90.707031-7.109375-124.320312zm-12.816406 19.203125c23.621094 26.84375 23.621094 67.058594 0 93.902344h-237.980469c16.785157-29.050781 16.785157-64.851563 0-93.902344zm.042969 116.402344c23.59375 26.835937 23.5625 67.027343-.0625 93.832031h-250.351563v-68.789062c.007813-8.636719-1.828125-17.171876-5.375-25.042969zm-272.910157 25.042969v146.246093h-152.496093v-146.246093c.023437-21.390626 17.355469-38.726563 38.746093-38.746094h75c21.390626.023437 38.722657 17.355468 38.75 38.746094zm-102.5-61.246094v-14.375h52.5v14.375zm1.25-52.5h50c.6875 0 1.25.558594 1.25 1.25v14.375h-52.5v-14.375c0-.691406.558594-1.25 1.25-1.25zm-68.339843 88.632812c-3.570313 7.886719-5.410157 16.453125-5.40625 25.113282v68.789062h-52.90625c8.296875-14.253906 12.648437-30.457031 12.617187-46.953125.039063-16.488281-4.304687-32.695313-12.589844-46.949219zm-58.292969 210.304688c8.289062-14.257813 12.628906-30.457032 12.589844-46.945313.042968-16.492187-4.300782-32.695312-12.589844-46.953125h52.886719v93.902344zm189.132812 78.550781h-75c-21.390624-.023437-38.722656-17.355469-38.746093-38.746094v-56.25h152.496093v56.25c-.027343 21.390625-17.359374 38.722657-38.75 38.746094zm311.617188-78.550781h-250.371094v-93.902344h250.371094c23.617188 26.84375 23.617188 67.058594 0 93.902344zm0 0"/></svg>