<?xml version="1.0" encoding="UTF-8" standalone="no"?> <svg id="Layer_1" data-name="Layer 1" xmlns="http://www.w3.org/2000/svg" viewBox="0 0 128 128"><defs><style>.cls-1{fill:#2d3e50;}.cls-2{fill:#2e79bd;}</style></defs><title>n</title><path class="cls-1" d="M120.581,62.73186H107.41986l-1.37813-3.14618L96.20259,37.09834a2.246,2.246,0,0,0-2.05795-1.349H64.77206V71.72782H1.81352V91.96477a2.24646,2.24646,0,0,0,2.2477,2.24776h9.154a15.74031,15.74031,0,1,0,31.15913,0H83.623a15.74028,15.74028,0,1,0,31.15908,0h9.15408a2.25042,2.25042,0,0,0,2.25033-2.25039V68.33735A5.60551,5.60551,0,0,0,120.581,62.73186ZM28.796,106.30354A9.84048,9.84048,0,0,1,19.4579,93.35068c.0254-.0553.04845-.1107.0692-.16841a9.89479,9.89479,0,0,1,5.09578-5.63089c.13611-.0646.27221-.12461.41061-.18231.10846-.04391.21686-.08771.32762-.12921.18456-.0692.37371-.1337.56287-.19151.1199-.03679.24221-.07139.36446-.1038.1061-.02759.21226-.0553.32066-.0784.21451-.0507.43366-.0922.65282-.1268q.37719-.0588.76128-.09c.08765-.007.1776-.01161.26756-.01621H28.3c.05305-.0046.1084-.0069.16375-.0069q.16613-.0069.33221-.0069t.33216.0069c.05535,0,.11076.0023.16381.0069h.0092c.09.0046.18.0092.26761.01621q.38409.03121.76128.09c.21916.0346.43826.0761.65282.1268.1084.0231.21451.05081.32061.0784.10616.03.21226.06.31606.09.15685.0484.31371.0992.47056.15461.15456.05541.30917.1153.45912.1776.0784.0323.15685.0669.23525.1015.04385.01851.08535.0392.12921.05989.13145.06.263.12461.39216.19162q.128.0657.25606.1384c.113.06219.22606.1268.33676.1937.13151.08311.263.16611.39216.25371a9.87625,9.87625,0,0,1,3.77169,4.87668,1.64407,1.64407,0,0,0,.07386.17531,9.84644,9.84644,0,0,1-9.34039,12.946Zm44.98781-48.067V40.24726H92.67163l7.87082,17.9893Zm25.41989,48.067a9.84034,9.84034,0,0,1-9.338-12.95286c.02535-.0553.0484-.1107.0692-.16841a9.89461,9.89461,0,0,1,5.09578-5.63089c.13611-.0646.27221-.12461.41061-.18231.1084-.04391.21686-.08771.32756-.12921.18456-.0692.37371-.1337.56287-.19151.12-.03679.24221-.07139.36446-.1038.1061-.02759.21226-.0553.32066-.0784.21456-.0507.43372-.0922.65282-.1268q.37719-.0588.76128-.09c.08765-.007.1776-.01161.26761-.01621h.0092c.05305-.0046.10846-.0069.16381-.0069q.16605-.0069.33216-.0069t.33221.0069c.05535,0,.1107.0023.16375.0069h.00925c.09.0046.1799.0092.26756.01621q.38417.03121.76128.09c.21916.0346.43832.0761.65282.1268.10846.0231.21456.05081.32066.0784.1061.03.21221.06.316.09.15685.0484.31376.0992.47062.15461.15456.05541.30911.1153.45907.1776.0784.0323.15685.0669.23531.1015.0438.01851.0853.0392.12915.05989.13151.06.263.12461.39216.19162q.128.0657.25606.1384c.11306.06219.22606.1268.33681.1937.13151.08311.263.16611.39216.25371a9.87615,9.87615,0,0,1,3.77163,4.87668,1.65543,1.65543,0,0,0,.07386.17531,9.84644,9.84644,0,0,1-9.34039,12.946Z"/><path class="cls-2" d="M35.4959,43.98769a4.29437,4.29437,0,0,0,1.81388-4.64816l6.11761-3.62677a1.39368,1.39368,0,0,0-1.469-2.36886l-6.17351,3.66148a4.29466,4.29466,0,1,0-.289,6.98231Z"/><path class="cls-2" d="M31.69465,64.90122c.48743.02836.98115.04413,1.47487.04413s.9875-.01577,1.47493-.04413A24.61125,24.61125,0,0,0,57.699,41.8468c.02825-.48748.044-.98131.044-1.47493,0-.49383-.01577-.98745-.044-1.47493A24.60894,24.60894,0,0,0,34.64445,15.8423c-.48743-.02825-.98115-.044-1.47493-.044s-.98745.01577-1.47487.044A24.61137,24.61137,0,0,0,8.64007,38.89694c-.02831.48748-.044.9811-.044,1.47493,0,.49361.01571.98745.044,1.47493A24.61368,24.61368,0,0,0,31.69465,64.90122Zm-16.79956-26.259H13.07426A20.20125,20.20125,0,0,1,31.43991,20.2765v1.82094a1.72965,1.72965,0,0,0,3.45929,0V20.2765A20.19854,20.19854,0,0,1,53.26484,38.64225H51.44713a1.72962,1.72962,0,0,0,0,3.45924h1.81771A20.20129,20.20129,0,0,1,34.8992,60.46713V58.6463a1.72965,1.72965,0,0,0-3.45929,0v1.82083A20.204,20.204,0,0,1,13.07426,42.10149h1.82083a1.72962,1.72962,0,1,0,0-3.45924Z"/></svg>